FILE "King of Fighters '97, The (1997)(SNK)(M4)[h].img" BINARY
  TRACK 01 MODE1/2352
    INDEX 01 00:00:00
  TRACK 02 AUDIO
    PREGAP 00:02:00
    INDEX 00 07:51:06
    INDEX 01 07:52:06
  TRACK 03 AUDIO
    INDEX 00 08:32:14
    INDEX 01 08:34:14
  TRACK 04 AUDIO
    INDEX 00 09:02:73
    INDEX 01 09:04:73
  TRACK 05 AUDIO
    INDEX 00 09:36:29
    INDEX 01 09:38:29
  TRACK 06 AUDIO
    INDEX 00 11:09:00
    INDEX 01 11:11:00
  TRACK 07 AUDIO
    INDEX 00 12:34:30
    INDEX 01 12:36:30
  TRACK 08 AUDIO
    INDEX 00 13:59:16
    INDEX 01 14:01:16
  TRACK 09 AUDIO
    INDEX 00 15:31:61
    INDEX 01 15:33:61
  TRACK 10 AUDIO
    INDEX 00 16:59:37
    INDEX 01 17:01:37
  TRACK 11 AUDIO
    INDEX 00 18:26:08
    INDEX 01 18:28:08
  TRACK 12 AUDIO
    INDEX 00 20:19:68
    INDEX 01 20:21:68
  TRACK 13 AUDIO
    INDEX 00 21:43:01
    INDEX 01 21:45:01
  TRACK 14 AUDIO
    INDEX 00 23:40:61
    INDEX 01 23:42:61
  TRACK 15 AUDIO
    INDEX 00 25:02:25
    INDEX 01 25:04:25
  TRACK 16 AUDIO
    INDEX 00 26:58:70
    INDEX 01 27:00:70
  TRACK 17 AUDIO
    INDEX 00 28:22:58
    INDEX 01 28:24:58
  TRACK 18 AUDIO
    INDEX 00 28:43:63
    INDEX 01 28:45:63
  TRACK 19 AUDIO
    INDEX 00 29:01:04
    INDEX 01 29:03:04
  TRACK 20 AUDIO
    INDEX 00 30:57:49
    INDEX 01 30:59:49
  TRACK 21 AUDIO
    INDEX 00 32:18:64
    INDEX 01 32:20:64
  TRACK 22 AUDIO
    INDEX 00 34:18:35
    INDEX 01 34:20:35
  TRACK 23 AUDIO
    INDEX 00 35:40:66
    INDEX 01 35:42:66
  TRACK 24 AUDIO
    INDEX 00 37:38:06
    INDEX 01 37:40:06
  TRACK 25 AUDIO
    INDEX 00 38:59:23
    INDEX 01 39:01:23
  TRACK 26 AUDIO
    INDEX 00 40:56:38
    INDEX 01 40:58:38
  TRACK 27 AUDIO
    INDEX 00 42:11:54
    INDEX 01 42:13:54
  TRACK 28 AUDIO
    INDEX 00 44:08:70
    INDEX 01 44:10:70
  TRACK 29 AUDIO
    INDEX 00 45:30:11
    INDEX 01 45:32:11
  TRACK 30 AUDIO
    INDEX 00 47:27:26
    INDEX 01 47:29:26
  TRACK 31 AUDIO
    INDEX 00 48:48:42
    INDEX 01 48:50:42
  TRACK 32 AUDIO
    INDEX 00 50:44:52
    INDEX 01 50:46:52
  TRACK 33 AUDIO
    INDEX 00 52:07:36
    INDEX 01 52:09:36
  TRACK 34 AUDIO
    INDEX 00 53:56:57
    INDEX 01 53:58:57
  TRACK 35 AUDIO
    INDEX 00 55:48:46
    INDEX 01 55:50:46
  TRACK 36 AUDIO
    INDEX 00 57:10:36
    INDEX 01 57:12:36
  TRACK 37 AUDIO
    INDEX 00 58:31:60
    INDEX 01 58:33:60
  TRACK 38 AUDIO
    INDEX 00 60:25:30
    INDEX 01 60:27:30
  TRACK 39 AUDIO
    INDEX 00 61:46:70
    INDEX 01 61:48:70
  TRACK 40 AUDIO
    INDEX 00 63:56:63
    INDEX 01 63:58:63
  TRACK 41 AUDIO
    INDEX 00 65:48:30
    INDEX 01 65:50:30
  TRACK 42 AUDIO
    INDEX 00 66:38:34
    INDEX 01 66:40:34
  TRACK 43 AUDIO
    INDEX 00 68:00:25
    INDEX 01 68:02:25
  TRACK 44 AUDIO
    INDEX 00 69:21:38
    INDEX 01 69:23:38
  TRACK 45 AUDIO
    INDEX 00 69:59:27
    INDEX 01 70:01:27
  TRACK 46 AUDIO
    INDEX 00 72:26:42
    INDEX 01 72:28:42
